<svg width="104" height="40" viewBox="0 0 104 40" fill="none" xmlns="http://www.w3.org/2000/svg">
<rect x="0.5" y="0.5" width="103" height="39" rx="7.5" fill="white"/>
<g clip-path="url(#clip0_2418_225)">
<path d="M45.3189 22.5034L44.4835 25.6221L41.4301 25.6867C40.5176 23.9942 40 22.0577 40 19.9999C40 18.01 40.4839 16.1335 41.3418 14.4812H41.3424L44.0608 14.9796L45.2516 17.6816C45.0024 18.4082 44.8665 19.1882 44.8665 19.9999C44.8666 20.8808 45.0262 21.7247 45.3189 22.5034Z" fill="#FBBB00"/>
<path d="M63.7903 17.7583C63.9281 18.4842 64 19.2339 64 20.0001C64 20.8592 63.9097 21.6972 63.7376 22.5056C63.1534 25.2563 61.627 27.6583 59.5125 29.3581L59.5119 29.3574L56.0879 29.1827L55.6034 26.1576C57.0064 25.3348 58.1029 24.0471 58.6805 22.5056H52.2638V17.7583H58.7741H63.7903Z" fill="#518EF8"/>
<path d="M59.5119 29.3575L59.5126 29.3581C57.4561 31.0111 54.8438 32.0001 52.0001 32.0001C47.4302 32.0001 43.457 29.4458 41.4302 25.6869L45.319 22.5037C46.3324 25.2083 48.9414 27.1336 52.0001 27.1336C53.3148 27.1336 54.5465 26.7781 55.6033 26.1577L59.5119 29.3575Z" fill="#28B446"/>
<path d="M59.6595 10.7626L55.772 13.9453C54.6782 13.2615 53.3852 12.8666 51.9999 12.8666C48.872 12.8666 46.2142 14.8802 45.2516 17.6818L41.3423 14.4813H41.3417C43.3388 10.6308 47.3621 8 51.9999 8C54.9116 8 57.5812 9.03716 59.6595 10.7626Z" fill="#F14336"/>
</g>
<rect x="0.5" y="0.5" width="103" height="39" rx="7.5" stroke="#D2D8E8"/>
<defs>
<clipPath id="clip0_2418_225">
<rect width="24" height="24" fill="white" transform="translate(40 8)"/>
</clipPath>
</defs>
</svg>
