<svg width="104" height="40" viewBox="0 0 104 40" fill="none" xmlns="http://www.w3.org/2000/svg">
<rect x="0.5" y="0.5" width="103" height="39" rx="7.5" fill="white"/>
<g clip-path="url(#clip0_0_6049)">
<path d="M52 31.999C58.6274 31.999 64 26.6264 64 19.999C64 13.3716 58.6274 7.99902 52 7.99902C45.3726 7.99902 40 13.3716 40 19.999C40 26.6264 45.3726 31.999 52 31.999Z" fill="#007AB9"/>
<path d="M59.1699 20.9653V25.9127H56.3016V21.2969C56.3016 20.1379 55.8874 19.3465 54.8489 19.3465C54.0563 19.3465 53.5855 19.8793 53.3776 20.3953C53.3021 20.5797 53.2826 20.8357 53.2826 21.0943V25.9125H50.4141C50.4141 25.9125 50.4526 18.0949 50.4141 17.2856H53.2828V18.5081C53.2771 18.5178 53.2689 18.5272 53.2638 18.5364H53.2828V18.5081C53.664 17.9216 54.3438 17.0831 55.868 17.0831C57.7551 17.0831 59.1699 18.316 59.1699 20.9653ZM47.4133 13.1272C46.4321 13.1272 45.7902 13.7713 45.7902 14.6175C45.7902 15.4458 46.4135 16.1085 47.3757 16.1085H47.3943C48.3947 16.1085 49.0168 15.4458 49.0168 14.6175C48.9978 13.7713 48.3947 13.1272 47.4133 13.1272ZM45.9606 25.9127H48.8281V17.2856H45.9606V25.9127Z" fill="#F1F2F2"/>
</g>
<rect x="0.5" y="0.5" width="103" height="39" rx="7.5" stroke="#D2D8E8"/>
<defs>
<clipPath id="clip0_0_6049">
<rect width="24" height="24" fill="white" transform="translate(40 8)"/>
</clipPath>
</defs>
</svg>
